<?xml version="1.0" encoding="UTF-8"?>
<svg version="1.1" xmlns="http://www.w3.org/2000/svg" width="499" height="312">
<path d="M0 0 C0.33 1.65 0.66 3.3 1 5 C0.49662109 5.26627197 -0.00675781 5.53254395 -0.52539062 5.80688477 C-12.8975918 12.17081337 -12.8975918 12.17081337 -23.6875 20.8203125 C-25 22 -25 22 -27 22 C-27.33 22.99 -27.66 23.98 -28 25 C-28.66 25 -29.32 25 -30 25 C-30.26683594 25.58136719 -30.53367187 26.16273437 -30.80859375 26.76171875 C-32.02860386 29.05373774 -33.40119439 30.82128973 -35.0625 32.8125 C-38.17217668 36.75443455 -40.8583645 40.82756391 -43.4375 45.125 C-43.77209229 45.67905518 -44.10668457 46.23311035 -44.45141602 46.80395508 C-51.43938661 58.61932485 -57.43628595 70.80479739 -62.9263916 83.37426758 C-63.96501066 85.7504394 -65.01221287 88.12267236 -66.06152344 90.49414062 C-68.94237676 97.01058754 -71.80719556 103.53297643 -74.61328125 110.08203125 C-81.59551261 126.25189685 -90.02177394 141.9535071 -102 155 C-102.60714844 155.69867188 -103.21429688 156.39734375 -103.83984375 157.1171875 C-115.12009367 169.37521807 -130.1839597 176.21388106 -146.74609375 177.15625 C-155.7852633 177.42178252 -164.24992942 176.05505101 -173 174 C-173.64888184 173.84966309 -174.29776367 173.69932617 -174.96630859 173.54443359 C-185.745069 170.94749933 -195.59863701 166.64979049 -205.68237305 162.09765625 C-236.15485907 148.42740881 -268.85892595 142.37868067 -301.03320312 154.20654297 C-332.22257657 166.7891477 -354.26524821 196.71928365 -367.5625 226.44921875 C-369.73319983 231.81108328 -371.68847653 237.25436483 -373.5534668 242.72998047 C-373.82843994 243.5138916 -374.10341309 244.29780273 -374.38671875 245.10546875 C-374.62608154 245.80824951 -374.86544434 246.51103027 -375.11206055 247.23510742 C-376 249 -376 249 -379 251 C-380.32 251 -381.64 251 -383 251 C-379.43562376 226.4454081 -364.92275915 201.6074104 -349 183 C-348.31421875 182.19175781 -347.6284375 181.38351563 -346.921875 180.55078125 C-327.11636514 157.85993632 -302.53075477 143.54954111 -272 141 C-247.21310406 139.64490774 -224.86527654 146.06564425 -202.38574219 155.95458984 C-178.27566915 166.51940081 -153.90462928 175.89252412 -128.0703125 165.83203125 C-122.36171637 163.38944886 -117.63004973 160.12150328 -113 156 C-112.21367187 155.31035156 -111.42734375 154.62070313 -110.6171875 153.91015625 C-104.65226136 148.31930175 -100.18623327 141.98732998 -96 135 C-95.62794434 134.3807666 -95.25588867 133.7615332 -94.87255859 133.12353516 C-84.61762838 115.82714225 -76.68897698 97.31500829 -68.75 78.875 C-64.81573969 69.74161857 -60.66607792 60.7832055 -56 52 C-55.53327881 51.11441406 -55.53327881 51.11441406 -55.05712891 50.2109375 C-44.9001451 31.12652717 -24.38828485 0 0 0 Z " fill="#F5D3C0" transform="translate(419,28)"/>
<path d="M0 0 C0.3125 2.1875 0.3125 2.1875 0 5 C-2.25 7.5 -2.25 7.5 -5 10 C-12.64117478 18.97340365 -17.5142242 29.91692862 -22.5 40.5 C-26.63074171 49.26604478 -30.96573599 57.71782373 -36 66 C-36.54785156 66.93457031 -37.09570312 67.86914062 -37.66015625 68.83203125 C-47.07464081 84.38930005 -60.13182301 99.54626457 -78.375 104.3125 C-91.07295324 106.56109589 -101.88465053 103.5055988 -114 100 C-138.01369694 93.15094418 -161.82534752 90.25984817 -184.37109375 102.7734375 C-198.45416846 111.12464601 -206.71448289 125.2093506 -215.03125 138.82421875 C-217 142 -217 142 -218 143 C-219.66617115 143.04063832 -221.33388095 143.042721 -223 143 C-223.82949295 137.57059162 -220.95826615 133.90144611 -218.1875 129.5 C-217.69338623 128.70553467 -217.19927246 127.91106934 -216.69018555 127.0925293 C-204.71810234 108.26517247 -189.35406554 93.79328224 -167.15966797 88.43261719 C-148.70019932 84.73488053 -129.84105543 88.03309565 -112 93 C-109.50460415 93.69386639 -107.0086048 94.38470534 -104.50952148 95.06518555 C-102.88517064 95.50844891 -101.26335 95.96113686 -99.64477539 96.42504883 C-88.95492463 99.35363331 -79.15154582 97.89005325 -69.3125 92.75 C-61.59127039 88.05127665 -55.74815716 81.95127332 -50.375 74.75 C-49.52663574 73.62368164 -49.52663574 73.62368164 -48.66113281 72.47460938 C-44.52107364 66.89212959 -41.08846379 61.2271465 -38 55 C-37.32600111 53.73723223 -36.64722933 52.47700548 -35.96484375 51.21875 C-31.85674671 43.62369304 -28.00331097 35.96097124 -24.375 28.125 C-10.87795218 -0.90649602 -10.87795218 -0.90649602 0 0 Z " fill="#F5D4C0" transform="translate(419,145)"/>
<path d="M0 0 C0.33 0.99 0.66 1.98 1 3 C0.0390625 4.71875 0.0390625 4.71875 -1.375 6.5 C-3.17572611 8.7936623 -4.05600494 10.16801482 -5 13 C-6.30794331 14.35824882 -7.64900897 15.68456137 -9 17 C-10.15243721 18.32762957 -11.29768192 19.66152081 -12.4375 21 C-18.76990041 28.22560215 -27.28238489 34.53883686 -37 36 C-37 36.66 -37 37.32 -37 38 C-49.77158565 40.79235385 -60.77609388 37.53700987 -73 34 C-90.77413234 28.9305588 -107.46419939 26.01182023 -125.70849609 30.02026367 C-128.99361687 30.7277335 -130.74475385 31.08508205 -134 30 C-125.5453967 22.43748914 -105.81068242 25.89941392 -95 26 C-95 25.67 -95 25.34 -95 25 C-87.15638996 24.71477782 -80.39370253 26.24223646 -72.90625 28.5078125 C-59.42718045 32.58224642 -44.68146883 36.79012818 -31.20703125 30.33984375 C-27.18346462 27.89721834 -23.58728257 25.03488099 -20 22 C-19.17113281 21.36707031 -18.34226562 20.73414063 -17.48828125 20.08203125 C-14.95071608 17.95876244 -13.03386047 15.79133346 -11 13.1875 C-10.31679688 12.31609375 -9.63359375 11.4446875 -8.9296875 10.546875 C-7.28150908 8.37154639 -5.68734622 6.17470583 -4.125 3.9375 C-2 1 -2 1 0 0 Z " fill="#F3CFB9" transform="translate(378,211)"/>
<path d="M0 0 C0.495 2.475 0.495 2.475 1 5 C0.49662109 5.26627197 -0.00675781 5.53254395 -0.52539062 5.80688477 C-12.8975918 12.17081337 -12.8975918 12.17081337 -23.6875 20.8203125 C-25 22 -25 22 -27 22 C-27.33 22.99 -27.66 23.98 -28 25 C-28.66 25 -29.32 25 -30 25 C-30.39058594 25.85464844 -30.39058594 25.85464844 -30.7890625 26.7265625 C-32.10055235 29.18877893 -33.62851611 31.20142835 -35.375 33.375 C-38.10461731 36.82263773 -40.62779207 40.29935563 -43 44 C-44.2077558 40.37673261 -43.54311128 39.35853631 -42 36 C-45.54672443 37.41868977 -46.42486034 38.5988651 -48 42 C-48.98962763 43.90126831 -49.99029094 45.79681979 -51 47.6875 C-51.7734375 49.14736328 -51.7734375 49.14736328 -52.5625 50.63671875 C-54 53 -54 53 -56 54 C-54.63847893 49.26333984 -52.58190786 45.38945104 -49.875 41.3125 C-49.47829102 40.70672119 -49.08158203 40.10094238 -48.67285156 39.47680664 C-38.52435739 24.1026857 -20.6951593 0 0 0 Z " fill="#F5D9C7" transform="translate(419,28)"/>
<path d="M0 0 C1.21824463 0.00725098 2.43648926 0.01450195 3.69165039 0.02197266 C15.1537501 0.19615719 26.68564286 0.95181773 37.375 5.375 C39.70097511 5.7563074 42.03412158 6.09960254 44.375 6.375 C44.375 7.035 44.375 7.695 44.375 8.375 C44.91640625 8.50390625 45.4578125 8.6328125 46.015625 8.765625 C54.18845797 10.87648914 61.46966921 13.46159156 68.375 18.375 C68.375 18.705 68.375 19.035 68.375 19.375 C63.19846967 18.83288571 59.07087969 17.5814675 54.3125 15.5 C47.13699235 12.48292355 40.02128811 10.8343487 32.375 9.375 C29.11348111 8.61040837 25.85862731 7.82276047 22.60546875 7.0234375 C15.6337113 5.6240279 8.71773031 5.22791386 1.62109375 5.27734375 C0.83477066 5.2787587 0.04844757 5.28017365 -0.76170349 5.28163147 C-3.23701015 5.28716328 -5.71222137 5.29970225 -8.1875 5.3125 C-9.88085806 5.31752384 -11.57421755 5.32208519 -13.26757812 5.32617188 C-17.3867547 5.33711022 -21.50586125 5.35432638 -25.625 5.375 C-25.625 4.715 -25.625 4.055 -25.625 3.375 C-16.96986012 0.78141201 -9.01568961 -0.10613304 0 0 Z " fill="#F4CEB8" transform="translate(153.625,170.625)"/>
<path d="M0 0 C0 0.66 0 1.32 0 2 C-0.66 2 -1.32 2 -2 2 C-2 2.99 -2 3.98 -2 5 C-3.94140625 6.578125 -3.94140625 6.578125 -6.5625 8.25 C-14.61453914 13.39742228 -19.95500659 19.9059573 -25.0625 27.875 C-28.03515625 32.4296875 -28.03515625 32.4296875 -29.51220703 34.68261719 C-30.54748551 36.2951645 -31.55160647 37.92796572 -32.53076172 39.57519531 C-33.03494629 40.39858398 -33.53913086 41.22197266 -34.05859375 42.0703125 C-34.72652954 43.19977295 -34.72652954 43.19977295 -35.40795898 44.35205078 C-37 46 -37 46 -39.68383789 46.24560547 C-40.44817139 46.16455566 -41.21250488 46.08350586 -42 46 C-42.23306991 42.19706217 -41.80474975 40.05411502 -39.8046875 36.8203125 C-39.33546875 36.05589844 -38.86625 35.29148437 -38.3828125 34.50390625 C-37.88523438 33.71886719 -37.38765625 32.93382812 -36.875 32.125 C-36.400625 31.34769531 -35.92625 30.57039063 -35.4375 29.76953125 C-28.85390464 19.18239818 -20.58135734 11.68982706 -10.8125 4.0625 C-9.82894531 3.29035156 -8.84539062 2.51820313 -7.83203125 1.72265625 C-4.8457054 -0.09385368 -3.41700517 -0.40604266 0 0 Z " fill="#EFC0A7" transform="translate(238,242)"/>
<path d="M0 0 C0.33 0.99 0.66 1.98 1 3 C0.01 4.485 0.01 4.485 -1 6 C-1.28488281 7.0621875 -1.56976563 8.124375 -1.86328125 9.21875 C-3.12989915 13.4321044 -4.94888441 16.74710949 -7.1875 20.5 C-10.75173322 26.61650716 -13.90710449 32.79812137 -16.70385742 39.30273438 C-18.17008988 42.6193531 -18.89136551 43.92757701 -22 46 C-23.16405498 48.81170634 -24.03116917 51.6623712 -24.9375 54.56640625 C-25.288125 55.36949219 -25.63875 56.17257813 -26 57 C-27.485 57.495 -27.485 57.495 -29 58 C-29.27841534 54.84462613 -29.08576119 53.16762415 -27.625 50.3125 C-26.17801002 47.36286658 -25.74865365 45.76215337 -25.3125 42.625 C-24.40539846 37.56675584 -22.46122752 33.31419285 -20.1875 28.75 C-19.85596924 28.07662598 -19.52443848 27.40325195 -19.18286133 26.70947266 C-16.90516706 22.2768177 -14.2336621 18.78227687 -11 15 C-10.11752432 13.5071453 -9.27665795 11.98804213 -8.5 10.4375 C-6.43208718 6.55689145 -4.27697957 3.91287073 -1 1 C-0.67 0.67 -0.34 0.34 0 0 Z " fill="#F0C9B3" transform="translate(377,63)"/>
<path d="M0 0 C0 0.33 0 0.66 0 1 C-6.19585165 0.48367903 -11.9141476 -0.63625449 -17.91015625 -2.28125 C-26.24074122 -4.21908519 -34.48343916 -4.18304573 -43 -4.1875 C-44.23234375 -4.19974609 -45.4646875 -4.21199219 -46.734375 -4.22460938 C-53.22637351 -4.23505787 -58.77806746 -3.82193163 -65 -2 C-66.32 -2 -67.64 -2 -69 -2 C-69 -1.34 -69 -0.68 -69 0 C-66.36 0 -63.72 0 -61 0 C-63.99309605 1.68646529 -67.02901924 2.62627356 -70.32885742 3.5456543 C-90.52933671 9.26522682 -105.70755077 22.14005647 -120 37 C-121.65924801 38.67430167 -123.32865615 40.33773954 -125 42 C-124.40716913 38.39428893 -122.97258223 36.45570562 -120.5625 33.75 C-119.94503906 33.04359375 -119.32757813 32.3371875 -118.69140625 31.609375 C-117 30 -117 30 -115 30 C-114.67 29.01 -114.34 28.02 -114 27 C-108.22363809 21.59055763 -101.72015764 16.9607006 -95.19140625 12.5078125 C-93.01957327 11.06686779 -93.01957327 11.06686779 -91.2265625 9.5 C-87.98880445 7.31877352 -84.47771427 6.17167136 -80.8125 4.875 C-76.04987679 3.50797327 -76.04987679 3.50797327 -72 1 C-81.16391014 1.77990725 -88.52108426 6.17417913 -96.421875 10.6328125 C-98.89996163 11.94694935 -101.37800165 13.00967688 -104 14 C-78.97172654 -13.27051588 -31.69388459 -9.81536379 0 0 Z " fill="#FBE5D6" transform="translate(197,176)"/>
<path d="M0 0 C0.3125 2.1875 0.3125 2.1875 0 5 C-2.25 7.5 -2.25 7.5 -5 10 C-8.20009715 13.70846289 -10.68142825 17.67542745 -13.0625 21.9375 C-13.40087891 22.53240234 -13.73925781 23.12730469 -14.08789062 23.74023438 C-15.68209793 26.56170378 -17.17977714 29.3825333 -18.55859375 32.31640625 C-20 35 -20 35 -23 37 C-23.474375 38.11375 -23.94875 39.2275 -24.4375 40.375 C-25.92701897 43.83068402 -27.19392502 45.58096984 -30 48 C-30 46.02 -30 44.04 -30 42 C-29.34 42 -28.68 42 -28 42 C-27.87625 41.01 -27.87625 41.01 -27.75 40 C-27.09772382 37.3908953 -26.36695507 35.64946126 -25.125 33.3125 C-23.53976137 30.29998247 -22.52965835 27.48290224 -21.6875 24.1875 C-19.10547557 14.99435807 -10.98638666 -0.91553222 0 0 Z " fill="#F5D3C0" transform="translate(419,145)"/>
<path d="M0 0 C0.495 1.485 0.495 1.485 1 3 C0.0390625 4.71875 0.0390625 4.71875 -1.375 6.5 C-3.17572611 8.7936623 -4.05600494 10.16801482 -5 13 C-6.30794331 14.35824882 -7.64900897 15.68456137 -9 17 C-10.15243721 18.32762957 -11.29768192 19.66152081 -12.4375 21 C-18.05909701 27.41453806 -24.41895089 31.18769082 -32 35 C-32.75410156 35.38414062 -33.50820313 35.76828125 -34.28515625 36.1640625 C-38.18344213 37.36439801 -41.88278737 37.28971963 -45.9375 37.25 C-46.72318359 37.25773437 -47.50886719 37.26546875 -48.31835938 37.2734375 C-52.93696757 37.25797772 -56.65561314 36.75728008 -61 35 C-61 34.67 -61 34.34 -61 34 C-60.38592285 33.9906543 -59.7718457 33.98130859 -59.13916016 33.97167969 C-56.30035567 33.91730259 -53.46308268 33.83379448 -50.625 33.75 C-49.65949219 33.73582031 -48.69398438 33.72164062 -47.69921875 33.70703125 C-38.84584576 33.4099382 -31.07942223 31.29817549 -24.1875 25.5 C-23.50042969 24.9328125 -22.81335938 24.365625 -22.10546875 23.78125 C-21.41066406 23.1934375 -20.71585937 22.605625 -20 22 C-19.17113281 21.36707031 -18.34226562 20.73414063 -17.48828125 20.08203125 C-14.95071608 17.95876244 -13.03386047 15.79133346 -11 13.1875 C-10.31679688 12.31609375 -9.63359375 11.4446875 -8.9296875 10.546875 C-7.28150908 8.37154639 -5.68734622 6.17470583 -4.125 3.9375 C-2 1 -2 1 0 0 Z " fill="#EFC3A9" transform="translate(378,211)"/>
<path d="M0 0 C-2.32596012 2.65824013 -4.45770456 3.7730576 -7.75 5 C-9.09191406 5.51820313 -9.09191406 5.51820313 -10.4609375 6.046875 C-12.43044186 6.78619664 -14.40226012 7.5193556 -16.375 8.25 C-26.73210013 12.78275441 -35.97392368 20.57503447 -43.65234375 28.76171875 C-45 30 -45 30 -47 30 C-47.226875 30.556875 -47.45375 31.11375 -47.6875 31.6875 C-49.35302319 34.62199324 -51.62221176 36.62221176 -54 39 C-54.33 39.99 -54.66 40.98 -55 42 C-55.66 42 -56.32 42 -57 42 C-57 42.66 -57 43.32 -57 44 C-57.66 44 -58.32 44 -59 44 C-59.33 44.66 -59.66 45.32 -60 46 C-60.36469559 42.7236219 -60.17743328 41.27900741 -58.3828125 38.45703125 C-48.6029173 27.00203289 -38.6307525 16.28254993 -25.1875 9.1875 C-23.02526002 8.01371258 -20.9936752 6.72436497 -18.9375 5.375 C-12.73394259 1.47315933 -7.35011165 -0.45938198 0 0 Z " fill="#EFC0A7" transform="translate(127,176)"/>
<path d="M0 0 C0.6171875 1.7890625 0.6171875 1.7890625 1 4 C0.02984013 5.74628777 -0.94740054 7.49059121 -2.0078125 9.18359375 C-3.38487613 11.70459607 -3.72353578 14.16624176 -4 17 C-2.35 15.35 -0.7 13.7 1 12 C-0.41970341 17.01116934 -2.59987948 20.8921035 -5.4375 25.1875 C-5.83259766 25.80302734 -6.22769531 26.41855469 -6.63476562 27.05273438 C-8.53487144 29.97086693 -10.38115673 32.68430257 -13 35 C-13.33 33.68 -13.66 32.36 -14 31 C-14.7425 31.7425 -15.485 32.485 -16.25 33.25 C-18.5 35.5 -20.75 37.75 -23 40 C-23.66 39.67 -24.32 39.34 -25 39 C-24.59910156 38.58492187 -24.19820313 38.16984375 -23.78515625 37.7421875 C-13.59249021 26.69435446 -6.80006426 13.27861248 0 0 Z " fill="#F8DCCC" transform="translate(335,141)"/>
<path d="M0 0 C0.33597717 3.61700424 0.36105804 5.45924873 -1.6875 8.52734375 C-2.450625 9.32269531 -3.21375 10.11804688 -4 10.9375 C-4.81726563 11.79214844 -5.63453125 12.64679688 -6.4765625 13.52734375 C-18.11978921 24.93626404 -18.11978921 24.93626404 -23.6875 25.125 C-24.780625 25.08375 -25.87375 25.0425 -27 25 C-27 24.34 -27 23.68 -27 23 C-26.34 23 -25.68 23 -25 23 C-25 22.34 -25 21.68 -25 21 C-22.98828125 19.44921875 -22.98828125 19.44921875 -20.3125 17.6875 C-14.40047438 13.65468365 -9.94474806 9.05427399 -5.4296875 3.55078125 C-2.15617128 0 -2.15617128 0 0 0 Z " fill="#EDC0A6" transform="translate(322,171)"/>
<path d="M0 0 C1.21429688 0.00515625 2.42859375 0.0103125 3.6796875 0.015625 C9.78565721 0.06883606 15.71370528 0.31902917 21.75 1.25 C21.75 1.91 21.75 2.57 21.75 3.25 C22.74 3.58 23.73 3.91 24.75 4.25 C23.77353516 4.24476318 22.79707031 4.23952637 21.79101562 4.23413086 C18.08578448 4.21570588 14.38055714 4.20443455 10.67529297 4.19506836 C9.08706984 4.19011216 7.49885109 4.18334524 5.91064453 4.17456055 C-4.85380471 4.11661386 -15.5154287 4.4342388 -26.25 5.25 C-26.25 4.59 -26.25 3.93 -26.25 3.25 C-17.37077099 0.54336605 -9.25132807 -0.15916263 0 0 Z " fill="#EDBFA3" transform="translate(154.25,170.75)"/>
<path d="M0 0 C0 4.74122769 -3.1200221 7.40669424 -6 11 C-6.433125 11.58136719 -6.86625 12.16273438 -7.3125 12.76171875 C-14.7578567 22.26784383 -25.52046745 29.86443143 -37.55859375 31.4765625 C-50.63935379 32.40606971 -62.73921104 28.07481664 -75 24 C-76.22332031 23.59523437 -77.44664062 23.19046875 -78.70703125 22.7734375 C-79.84205078 22.39058594 -79.84205078 22.39058594 -81 22 C-81 21.67 -81 21.34 -81 21 C-74.22543914 21.54854744 -68.21294565 22.9365294 -61.75 25 C-60.01626616 25.54371535 -58.28190866 26.08544685 -56.546875 26.625 C-55.79245117 26.86476562 -55.03802734 27.10453125 -54.26074219 27.3515625 C-43.37503887 30.47385494 -33.31949439 28.97779189 -23.3125 23.75 C-13.3495022 17.73693407 -6.90603778 9.15303904 0 0 Z " fill="#FCEADE" transform="translate(373,214)"/>
<path d="M0 0 C0.66 0.33 1.32 0.66 2 1 C0.71372289 2.17260611 -0.57919783 3.3379283 -1.875 4.5 C-2.59429687 5.1496875 -3.31359375 5.799375 -4.0546875 6.46875 C-6 8 -6 8 -8 8 C-8.33 8.99 -8.66 9.98 -9 11 C-9.66 11 -10.32 11 -11 11 C-11.26039063 11.56976563 -11.52078125 12.13953125 -11.7890625 12.7265625 C-13.10055235 15.18877893 -14.62851611 17.20142835 -16.375 19.375 C-19.10461731 22.82263773 -21.62779207 26.29935563 -24 30 C-25.2077558 26.37673261 -24.54311128 25.35853631 -23 22 C-26.54672443 23.41868977 -27.42486034 24.5988651 -29 28 C-29.98962763 29.90126831 -30.99029094 31.79681979 -32 33.6875 C-32.7734375 35.14736328 -32.7734375 35.14736328 -33.5625 36.63671875 C-35 39 -35 39 -37 40 C-35.62936601 35.22091113 -33.53635222 31.30493777 -30.8125 27.1875 C-30.41683838 26.58019043 -30.02117676 25.97288086 -29.61352539 25.34716797 C-26.32833017 20.36359876 -22.79316642 15.61034376 -19 11 C-19 14.69418201 -20.28179295 16.77836178 -22 20 C-18.80709098 17.67788435 -16.22527981 15.18510689 -13.6875 12.1875 C-9.81004012 7.6467904 -5.40583533 2.70291767 0 0 Z " fill="#FBE4D5" transform="translate(400,42)"/>
<path d="M0 0 C0.44807781 6.27308929 -0.33133382 10.77307092 -4 16 C-4.99 16.66 -5.98 17.32 -7 18 C-8.16405498 20.81170634 -9.03116917 23.6623712 -9.9375 26.56640625 C-10.288125 27.36949219 -10.63875 28.17257813 -11 29 C-11.99 29.33 -12.98 29.66 -14 30 C-14.39742136 25.49589123 -13.09041596 22.93963008 -11 19 C-10.69835937 18.07703125 -10.39671875 17.1540625 -10.0859375 16.203125 C-8.9566206 12.87204637 -7.56761969 9.83449653 -6 6.6875 C-5.484375 5.63949219 -4.96875 4.59148437 -4.4375 3.51171875 C-2.42768274 0 -2.42768274 0 0 0 Z " fill="#F2CDB7" transform="translate(362,91)"/>
<path d="M0 0 C1.125 3.75 1.125 3.75 0 6 C-0.99 6 -1.98 6 -3 6 C-3 7.98 -3 9.96 -3 12 C-2.34 12 -1.68 12 -1 12 C-0.855625 11.38125 -0.71125 10.7625 -0.5625 10.125 C0 8 0 8 1 6 C1.66 6 2.32 6 3 6 C1.23767539 10.9484482 -1.36023474 15.38172807 -3.9375 19.9375 C-6.73907449 24.90856158 -9.50381148 29.86757277 -12 35 C-13 33 -13 33 -12.0390625 30.06640625 C-11.57242188 28.91011719 -11.10578125 27.75382812 -10.625 26.5625 C-10.16351563 25.40878906 -9.70203125 24.25507813 -9.2265625 23.06640625 C-8.82179688 22.05449219 -8.41703125 21.04257813 -8 20 C-7.67 19.01 -7.34 18.02 -7 17 C-8.65 18.32 -10.3 19.64 -12 21 C-10.57298364 15.92356475 -8.32425022 12.02446597 -5.4375 7.6875 C-5.02564453 7.05521484 -4.61378906 6.42292969 -4.18945312 5.77148438 C-1.18752426 1.18752426 -1.18752426 1.18752426 0 0 Z " fill="#FAE2D4" transform="translate(63,220)"/>
<path d="M0 0 C1.39211215 4.17633644 -0.0464421 5.78960515 -1.9375 9.6875 C-2.78634766 11.45673828 -2.78634766 11.45673828 -3.65234375 13.26171875 C-4.09707031 14.16535156 -4.54179687 15.06898438 -5 16 C-5.66 16 -6.32 16 -7 16 C-6.67 17.65 -6.34 19.3 -6 21 C-3.98904936 18.11763742 -2.18358437 15.45896092 -0.875 12.1875 C0 10 0 10 2 9 C1.40440894 13.86872054 -0.72477415 17.59328841 -3.0625 21.8125 C-3.62807617 22.85180664 -3.62807617 22.85180664 -4.20507812 23.91210938 C-5.13083852 25.61128985 -6.06462312 27.30609425 -7 29 C-7.33 29 -7.66 29 -8 29 C-8 27.02 -8 25.04 -8 23 C-8.66 23 -9.32 23 -10 23 C-10 23.99 -10 24.98 -10 26 C-10.66 26 -11.32 26 -12 26 C-12.33 26.99 -12.66 27.98 -13 29 C-13.33 28.34 -13.66 27.68 -14 27 C-12.88487577 24.63678279 -11.7157224 22.39817676 -10.4375 20.125 C-9.69529073 18.77286125 -8.95442315 17.41998524 -8.21484375 16.06640625 C-7.84214355 15.38723145 -7.46944336 14.70805664 -7.08544922 14.00830078 C-4.59687227 9.40392966 -2.30883034 4.69637081 0 0 Z " fill="#FCEADE" transform="translate(396,171)"/>
<path d="M0 0 C0.33 0 0.66 0 1 0 C0.52231159 4.13996619 -0.09590783 7.31875513 -2 11 C-2 12.32 -2 13.64 -2 15 C-1.34 15 -0.68 15 0 15 C0.268125 13.783125 0.53625 12.56625 0.8125 11.3125 C1.68494361 7.77878956 2.92156939 5.0231718 5 2 C5.33 2.66 5.66 3.32 6 4 C5.13549805 6.49023438 5.13549805 6.49023438 3.76171875 9.59375 C3.27123047 10.70621094 2.78074219 11.81867188 2.27539062 12.96484375 C1.75138672 14.13144531 1.22738281 15.29804687 0.6875 16.5 C0.17509766 17.66660156 -0.33730469 18.83320312 -0.86523438 20.03515625 C-4.72828956 28.72828956 -4.72828956 28.72828956 -7 31 C-6.40895235 26.15340923 -5.02055843 22.39251833 -3 18 C-6.11332248 18.66868314 -6.11332248 18.66868314 -7.1875 21.0625 C-7.455625 21.701875 -7.72375 22.34125 -8 23 C-9 21 -9 21 -8.28735352 18.84521484 C-7.90506592 17.97590332 -7.52277832 17.1065918 -7.12890625 16.2109375 C-6.71962891 15.26992187 -6.31035156 14.32890625 -5.88867188 13.359375 C-5.45103516 12.37453125 -5.01339844 11.3896875 -4.5625 10.375 C-4.12873047 9.38242188 -3.69496094 8.38984375 -3.24804688 7.3671875 C-2.17229113 4.90831723 -1.08935634 2.45286789 0 0 Z " fill="#FBE2D5" transform="translate(351,105)"/>
<path d="M0 0 C0.75 1.625 0.75 1.625 1 4 C-0.31306433 6.0133653 -1.64837492 8.01231606 -3 10 C-3.34578768 11.99788438 -3.68143549 13.99759451 -4 16 C-4.99 16.66 -5.98 17.32 -7 18 C-7.7115625 19.670625 -7.7115625 19.670625 -8.4375 21.375 C-9.92701897 24.83068402 -11.19392502 26.58096984 -14 29 C-14 27.02 -14 25.04 -14 23 C-13.34 23 -12.68 23 -12 23 C-11.90332031 22.32066406 -11.80664062 21.64132813 -11.70703125 20.94140625 C-10.84259861 17.34517545 -9.34662975 14.21749865 -7.6875 10.9375 C-7.39166016 10.32583984 -7.09582031 9.71417969 -6.79101562 9.08398438 C-4.96940005 5.4446876 -3.04832362 2.69840567 0 0 Z " fill="#EEBFA5" transform="translate(403,164)"/>
<path d="M0 0 C0 3.71174754 -0.96981969 4.58722586 -3.1875 7.5 C-6.96158637 12.70563637 -9.51845685 18.09351713 -12 24 C-12.33 24.66 -12.66 25.32 -13 26 C-12.34 26 -11.68 26 -11 26 C-10.71125 25.360625 -10.4225 24.72125 -10.125 24.0625 C-9 22 -9 22 -7 21 C-8.23655601 24.42430894 -9.40112619 27.40112619 -12 30 C-14.6875 30.25 -14.6875 30.25 -17 30 C-17.23306991 26.19706217 -16.80474975 24.05411502 -14.8046875 20.8203125 C-14.33546875 20.05589844 -13.86625 19.29148437 -13.3828125 18.50390625 C-12.88523438 17.71886719 -12.38765625 16.93382812 -11.875 16.125 C-11.1634375 14.95904297 -11.1634375 14.95904297 -10.4375 13.76953125 C-7.33239404 8.77618518 -3.92987852 4.37301023 0 0 Z " fill="#FCE7DC" transform="translate(213,258)"/>
<path d="M0 0 C-0.71027344 0.26554688 -1.42054688 0.53109375 -2.15234375 0.8046875 C-3.07144531 1.15789062 -3.99054688 1.51109375 -4.9375 1.875 C-6.31228516 2.39707031 -6.31228516 2.39707031 -7.71484375 2.9296875 C-10.14941056 3.7819086 -10.14941056 3.7819086 -11 6 C-9.35 6 -7.7 6 -6 6 C-8.62198774 8.15377564 -10.64404172 9.40072174 -14 10 C-14 9.34 -14 8.68 -14 8 C-13.34 8 -12.68 8 -12 8 C-12 7.34 -12 6.68 -12 6 C-17.88907204 7.26141087 -21.26964709 9.41793513 -25.6875 13.4375 C-32.6749949 19.61343916 -32.6749949 19.61343916 -36 22 C-31.27950725 10.66055546 -16.92450155 4.00936139 -6.2265625 -0.43359375 C-3.74189107 -1.06565929 -2.39331945 -0.83602255 0 0 Z " fill="#FCE7DD" transform="translate(250,236)"/>
<path d="M0 0 C0.99 0.33 1.98 0.66 3 1 C-0.83131446 5.55615774 -4.76284054 10.01762051 -8.75 14.4375 C-9.23380127 14.98180664 -9.71760254 15.52611328 -10.21606445 16.08691406 C-11.43593241 17.43011543 -12.71383402 18.72013875 -14 20 C-14.66 20 -15.32 20 -16 20 C-15.21803204 14.91720828 -11.94742856 10.22971428 -8 7 C-7.34 7 -6.68 7 -6 7 C-5.67 6.01 -5.34 5.02 -5 4 C-2.625 1.75 -2.625 1.75 0 0 Z " fill="#EEC1A8" transform="translate(394,42)"/>
<path d="M0 0 C0.5775 0.226875 1.155 0.45375 1.75 0.6875 C0.78900391 1.32365234 0.78900391 1.32365234 -0.19140625 1.97265625 C-1.05636719 2.55917969 -1.92132813 3.14570313 -2.8125 3.75 C-3.65941406 4.31847656 -4.50632813 4.88695312 -5.37890625 5.47265625 C-12.23692348 10.76312669 -17.0279761 16.8697062 -21.6875 24.125 C-22.22826172 24.95193359 -22.76902344 25.77886719 -23.32617188 26.63085938 C-24.64173904 28.64495778 -25.94942285 30.66370322 -27.25 32.6875 C-27.83300781 30.82397461 -27.83300781 30.82397461 -28.25 28.6875 C-26.921875 26.50390625 -26.921875 26.50390625 -25 24.25 C-23.08557469 21.97563109 -21.35584126 19.8740111 -19.88671875 17.28515625 C-17.76310702 13.91474623 -15.15134007 11.33564219 -12.3125 8.5625 C-11.78720703 8.03785156 -11.26191406 7.51320312 -10.72070312 6.97265625 C-3.21675081 -0.44677095 -3.21675081 -0.44677095 0 0 Z " fill="#FBE3D4" transform="translate(234.25,246.3125)"/>
<path d="M0 0 C0.93423645 3.01031744 1.04449911 3.86650268 0 7 C1.32 6.67 2.64 6.34 4 6 C2.25 11.75 2.25 11.75 0 14 C-0.33 12.68 -0.66 11.36 -1 10 C-1.66 10 -2.32 10 -3 10 C-3.11214844 10.56203125 -3.22429687 11.1240625 -3.33984375 11.703125 C-4.09057339 14.31513108 -5.21167376 16.39471322 -6.5625 18.75 C-7.01753906 19.54921875 -7.47257812 20.3484375 -7.94140625 21.171875 C-8.29074219 21.77515625 -8.64007813 22.3784375 -9 23 C-10 20 -10 20 -8.41796875 16.34765625 C-7.68454122 14.91407831 -6.94058765 13.4858484 -6.1875 12.0625 C-5.81818359 11.34642578 -5.44886719 10.63035156 -5.06835938 9.89257812 C-4.37587181 8.55111658 -3.67929152 7.2117541 -2.97729492 5.87524414 C-1.96230386 3.92766823 -0.97724653 1.96674609 0 0 Z " fill="#F9E2D2" transform="translate(362,82)"/>
<path d="M0 0 C2.36402909 -0.05875797 4.72719526 -0.09483131 7.09179688 -0.12109375 C7.8280127 -0.13422607 8.56422852 -0.1473584 9.32275391 -0.16088867 C14.42831141 -0.16836471 18.80552248 0.66397688 23.71679688 2.06640625 C20.27920213 3.08188829 17.70361024 2.82563462 14.15820312 2.3359375 C5.17868311 1.34459849 -3.22399077 2.15850494 -11.99023438 4.08691406 C-15.27584871 4.79355068 -17.02756597 5.15161864 -20.28320312 4.06640625 C-14.74381039 -0.92439928 -7.06256555 0.20541251 0 0 Z " fill="#FDE4D3" transform="translate(264.283203125,236.93359375)"/>
<path d="M0 0 C5.37967058 0.39694657 10.01348713 0.84367011 15 3 C17.32597511 3.3813074 19.65912158 3.72460254 22 4 C22 4.66 22 5.32 22 6 C20.68 6 19.36 6 18 6 C18 6.66 18 7.32 18 8 C18.66 8.33 19.32 8.66 20 9 C17.03 8.505 17.03 8.505 14 8 C14 7.01 14 6.02 14 5 C12.98679688 4.92652344 12.98679688 4.92652344 11.953125 4.8515625 C10.61507812 4.73941406 10.61507812 4.73941406 9.25 4.625 C8.36828125 4.55539063 7.4865625 4.48578125 6.578125 4.4140625 C4.00933618 4.00149945 2.24158985 3.28839043 0 2 C0 1.34 0 0.68 0 0 Z " fill="#EFC2AA" transform="translate(176,173)"/>
<path d="M0 0 C0.66 0.33 1.32 0.66 2 1 C-2.43076923 6.78461538 -2.43076923 6.78461538 -5.3125 7.875 C-6.1478125 7.936875 -6.1478125 7.936875 -7 8 C-7 8.66 -7 9.32 -7 10 C-8.32 10.33 -9.64 10.66 -11 11 C-11 11.66 -11 12.32 -11 13 C-12.65 13 -14.3 13 -16 13 C-16 12.34 -16 11.68 -16 11 C-15.34 11 -14.68 11 -14 11 C-14 10.34 -14 9.68 -14 9 C-12.20703125 7.59765625 -12.20703125 7.59765625 -9.8125 6.0625 C-8.99265625 5.5365625 -8.1728125 5.010625 -7.328125 4.46875 C-6.55984375 3.9840625 -5.7915625 3.499375 -5 3 C-4.030625 2.360625 -3.06125 1.72125 -2.0625 1.0625 C-1.381875 0.711875 -0.70125 0.36125 0 0 Z " fill="#EDC1A8" transform="translate(311,183)"/>
<path d="M0 0 C0 0.66 0 1.32 0 2 C2.64 2 5.28 2 8 2 C4.3429327 4.05768493 0.44172404 5.09411243 -3.5625 6.25 C-9.83938285 8.11039972 -15.27237547 10.48481538 -20.86328125 13.9609375 C-23 15 -23 15 -26 14 C-21.4356964 10.68638747 -16.99487954 8.67177309 -11.6875 6.8125 C-6.99176989 5.47215902 -6.99176989 5.47215902 -3 3 C-3.66 2.34 -4.32 1.68 -5 1 C-2 0 -2 0 0 0 Z " fill="#FBDECF" transform="translate(128,174)"/>
<path d="M0 0 C1.17037635 3.51112904 0.86295634 3.8866582 -0.6875 7.0625 C-3.00187211 11.96542071 -5.01966117 16.95434948 -7 22 C-7.33 20.68 -7.66 19.36 -8 18 C-8.66 18 -9.32 18 -10 18 C-7.79207165 10.86669304 -4.89919117 5.56124403 0 0 Z " fill="#F2C7B0" transform="translate(57,234)"/>
<path d="M0 0 C4.69372189 0.7636611 9.02518571 2.32055113 13.5 3.875 C20.92961549 6.4122008 28.29604349 8.44831971 36 10 C36 10.33 36 10.66 36 11 C25.14957172 10.51365932 16.84350496 8.2717097 7 4 C5.329375 3.4740625 5.329375 3.4740625 3.625 2.9375 C1 2 1 2 0 0 Z " fill="#FAE2D2" transform="translate(223,188)"/>
<path d="M0 0 C1.2065625 0.0309375 1.2065625 0.0309375 2.4375 0.0625 C2.75 2.25 2.75 2.25 2.4375 5.0625 C0.1875 7.5625 0.1875 7.5625 -2.5625 10.0625 C-3.90544481 11.72143182 -5.23994688 13.38726605 -6.5625 15.0625 C-7.54480498 16.0798873 -8.53719597 17.08846117 -9.5625 18.0625 C-9.08362335 13.29985403 -7.06761358 10.83608348 -4 7.25 C-2.76056641 5.78626953 -2.76056641 5.78626953 -1.49609375 4.29296875 C-0.85800781 3.55691406 -0.21992188 2.82085937 0.4375 2.0625 C-4.09455793 4.20298719 -7.15613599 6.35557446 -10.5625 10.0625 C-9.00553593 6.24086093 -6.52841316 3.87631505 -3.5625 1.0625 C-2.5625 0.0625 -2.5625 0.0625 0 0 Z " fill="#F9E2D6" transform="translate(416.5625,144.9375)"/>
<path d="M0 0 C1.50412782 4.51238346 -0.5538533 7.16711272 -2.51953125 11.32421875 C-4.32402949 14.58564698 -6.1479329 16.63685869 -9 19 C-7.54312007 11.13284839 -5.14216568 6.20606203 0 0 Z " fill="#EEC0A5" transform="translate(339,140)"/>
<path d="M0 0 C0.66 0 1.32 0 2 0 C2.125 7.75 2.125 7.75 1 10 C0.01 10 -0.98 10 -2 10 C-2.33 11.32 -2.66 12.64 -3 14 C-3.66 14 -4.32 14 -5 14 C-4.25 6.375 -4.25 6.375 -2 3 C-1.34 3 -0.68 3 0 3 C0 2.01 0 1.02 0 0 Z " fill="#EEC3AA" transform="translate(386,194)"/>
<path d="M0 0 C1 3 1 3 0.28735352 4.90112305 C-0.28607788 5.94586792 -0.28607788 5.94586792 -0.87109375 7.01171875 C-1.48500977 8.14770508 -1.48500977 8.14770508 -2.11132812 9.30664062 C-2.54896484 10.09232422 -2.98660156 10.87800781 -3.4375 11.6875 C-4.0881543 12.88342773 -4.0881543 12.88342773 -4.75195312 14.10351562 C-5.82574763 16.07410554 -6.90864182 18.03909927 -8 20 C-8.33 20 -8.66 20 -9 20 C-10.25 13.375 -10.25 13.375 -8 10 C-7.67 10.66 -7.34 11.32 -7 12 C-4.50315468 8.42118837 -2.51866867 5.08872335 -1 1 C-0.67 0.67 -0.34 0.34 0 0 Z " fill="#F7D5C1" transform="translate(397,180)"/>
<path d="M0 0 C0.66 0.33 1.32 0.66 2 1 C-12.74034621 17.95822237 -12.74034621 17.95822237 -20 20 C-20 19.34 -20 18.68 -20 18 C-18.68 17.67 -17.36 17.34 -16 17 C-16 16.34 -16 15.68 -16 15 C-15.195625 14.505 -14.39125 14.01 -13.5625 13.5 C-8.48884131 10.3319978 -4.87486692 5.4785304 -1 1 C-0.67 0.67 -0.34 0.34 0 0 Z " fill="#FAE3D6" transform="translate(320,176)"/>
<path d="M0 0 C0.86305317 2.39617867 1.17256524 3.56644056 0.21484375 5.97265625 C-0.20667969 6.66230469 -0.62820313 7.35195312 -1.0625 8.0625 C-3.74912954 12.56017229 -6.17586565 17.15303586 -8.5703125 21.8125 C-10 24 -10 24 -13 25 C-11.67203255 22.32317572 -10.30856105 19.66984256 -8.90625 17.03125 C-8.51566406 16.29519531 -8.12507813 15.55914062 -7.72265625 14.80078125 C-6.90755208 13.26692708 -6.09244792 11.73307292 -5.27734375 10.19921875 C-4.88675781 9.46316406 -4.49617188 8.72710937 -4.09375 7.96875 C-3.73990234 7.30294922 -3.38605469 6.63714844 -3.02148438 5.95117188 C-1.98920944 3.97938858 -0.98909298 1.99374472 0 0 Z " fill="#FCE9DD" transform="translate(335,141)"/>
<path d="M0 0 C0.33 0.66 0.66 1.32 1 2 C-0.40895236 4.61788643 -1.86243091 7.11045672 -3.4375 9.625 C-3.87126953 10.33140625 -4.30503906 11.0378125 -4.75195312 11.765625 C-5.82748132 13.51483568 -6.91283725 15.25799654 -8 17 C-8.33 16.34 -8.66 15.68 -9 15 C-8.33903737 13.66382986 -7.67145849 12.33092664 -7 11 C-6.65068873 8.63817947 -6.49965836 6.3072815 -6.34375 3.92578125 C-6.2303125 3.29027344 -6.116875 2.65476563 -6 2 C-5.34 1.67 -4.68 1.34 -4 1 C-4 2.32 -4 3.64 -4 5 C-2.68 3.35 -1.36 1.7 0 0 Z " fill="#F9DBC9" transform="translate(335,153)"/>
<path d="M0 0 C0.66 0 1.32 0 2 0 C0.4529303 5.40302371 -1.20815421 10.7564319 -3.0625 16.0625 C-3.38347656 16.98160156 -3.70445313 17.90070313 -4.03515625 18.84765625 C-5 21 -5 21 -7 22 C-6.40477506 19.45594213 -5.79917231 16.9151083 -5.1875 14.375 C-4.9390332 13.30572266 -4.9390332 13.30572266 -4.68554688 12.21484375 C-3.61290285 7.80283625 -2.20707645 4.00941682 0 0 Z " fill="#FCE7DD" transform="translate(48,256)"/>
<path d="M0 0 C0.33 0 0.66 0 1 0 C1.39036513 1.60049704 1.76178619 3.20562371 2.125 4.8125 C2.33382812 5.70582031 2.54265625 6.59914063 2.7578125 7.51953125 C3 10 3 10 1 13 C-0.32 13 -1.64 13 -3 13 C-2.68991116 11.39536551 -2.37683713 9.79130769 -2.0625 8.1875 C-1.88847656 7.29417969 -1.71445312 6.40085937 -1.53515625 5.48046875 C-1 3 -1 3 0 0 Z " fill="#F6D1BA" transform="translate(39,266)"/>
<path d="M0 0 C1.1845131 3.55353929 1.26641894 6.27013478 1 10 C-0.3125 11.9375 -0.3125 11.9375 -2 13 C-2.99 13 -3.98 13 -5 13 C-5.99 13.495 -5.99 13.495 -7 14 C-5.53967505 8.68972746 -3.01679014 4.53669968 0 0 Z " fill="#F4D8C7" transform="translate(381,200)"/>
<path d="M0 0 C18.83869947 5.96558817 18.83869947 5.96558817 25 11 C21.11403154 10.36062676 17.79761652 9.18638722 14.1875 7.625 C9.49532702 5.62401152 4.79068264 3.75044173 0 2 C0 1.34 0 0.68 0 0 Z " fill="#FCE4D4" transform="translate(198,177)"/>
<path d="M0 0 C-1.67872725 3.96790076 -4.08277074 6.86931494 -7 10 C-7.99 10 -8.98 10 -10 10 C-10 6.04435836 -8.59478606 4.89133304 -6 2 C-3 0 -3 0 0 0 Z " fill="#EEC3A8" transform="translate(417,147)"/>
<path d="M0 0 C0 3 0 3 -1 5 C-0.34 5 0.32 5 1 5 C1.433125 4.0409375 1.433125 4.0409375 1.875 3.0625 C3 1 3 1 5 0 C3.87548273 2.9719385 2.77706209 5.33440687 1 8 C-1.625 8.1875 -1.625 8.1875 -4 8 C-3.40072174 4.64404172 -2.15377564 2.62198774 0 0 Z " fill="#F3D4C2" transform="translate(201,279)"/>
<path d="M0 0 C0.66 0 1.32 0 2 0 C0.6077541 4.62675657 -1.29520984 8.64686231 -3.625 12.875 C-4.25664063 14.02742187 -4.88828125 15.17984375 -5.5390625 16.3671875 C-6.02117188 17.23601562 -6.50328125 18.10484375 -7 19 C-8 17 -8 17 -7.109375 14.1015625 C-6.43648437 12.38066406 -6.43648437 12.38066406 -5.75 10.625 C-5.31171875 9.48289063 -4.8734375 8.34078125 -4.421875 7.1640625 C-3.1743194 4.38790856 -2.04921491 2.23650875 0 0 Z " fill="#FDE7DC" transform="translate(58,236)"/>
<path d="M0 0 C-0.74468085 7.74468085 -0.74468085 7.74468085 -4 11 C-4.66 11 -5.32 11 -6 11 C-5.4971641 7.31253672 -5.00153469 4.17890804 -3 1 C-1 0 -1 0 0 0 Z " fill="#EEC1A5" transform="translate(362,91)"/>
<path d="M0 0 C0.99 0.66 1.98 1.32 3 2 C1.25 9.75 1.25 9.75 -1 12 C-2.3899408 9.2201184 -2.18488204 7.0813674 -2 4 C-1 1.625 -1 1.625 0 0 Z " fill="#F0C4AB" transform="translate(42,262)"/>
<path d="M0 0 C0.66 0 1.32 0 2 0 C0.66511872 3.59391114 -0.96022723 6.75490696 -3 10 C-4.65 9.67 -6.3 9.34 -8 9 C-7.34 7.35 -6.68 5.7 -6 4 C-4.68 4.66 -3.36 5.32 -2 6 C-1.855625 5.38125 -1.71125 4.7625 -1.5625 4.125 C-1 2 -1 2 0 0 Z " fill="#F7D8C7" transform="translate(64,226)"/>
<path d="M0 0 C0.66 0.33 1.32 0.66 2 1 C-10.36751497 7.32185629 -10.36751497 7.32185629 -16 7 C-15 5 -15 5 -12.12890625 3.96484375 C-10.95199219 3.62582031 -9.77507812 3.28679687 -8.5625 2.9375 C-4.18057141 1.72693693 -4.18057141 1.72693693 0 0 Z " fill="#FCE5D7" transform="translate(298,196)"/>
<path d="M0 0 C3.96 0.33 7.92 0.66 12 1 C12 1.66 12 2.32 12 3 C10.68 3 9.36 3 8 3 C8 3.66 8 4.32 8 5 C8.66 5.33 9.32 5.66 10 6 C7.03 5.505 7.03 5.505 4 5 C4 4.01 4 3.02 4 2 C2.68 1.34 1.36 0.68 0 0 Z " fill="#F2CCB6" transform="translate(186,176)"/>
<path d="M0 0 C0.33 0.66 0.66 1.32 1 2 C-0.07674702 4.28258633 -1.19546116 6.4356434 -2.4375 8.625 C-2.77587891 9.23601562 -3.11425781 9.84703125 -3.46289062 10.4765625 C-4.30146192 11.988353 -5.14982577 13.49470399 -6 15 C-6.6796875 13.32421875 -6.6796875 13.32421875 -7 11 C-5.8203125 8.45703125 -5.8203125 8.45703125 -4.125 5.8125 C-3.57070313 4.93207031 -3.01640625 4.05164063 -2.4453125 3.14453125 C-1 1 -1 1 0 0 Z " fill="#FCE4D4" transform="translate(406,163)"/>
<path d="M0 0 C1 3 1 3 -0.1875 6.125 C-2 9 -2 9 -4.1875 9.875 C-5.0846875 9.936875 -5.0846875 9.936875 -6 10 C-4.52307692 3.47692308 -4.52307692 3.47692308 -1.875 1.0625 C-1.25625 0.711875 -0.6375 0.36125 0 0 Z " fill="#EEBFA3" transform="translate(377,63)"/>
<path d="M0 0 C0 0.66 0 1.32 0 2 C2.64 2 5.28 2 8 2 C4.17482487 4.39073445 0.40334476 4.55966552 -4 5 C-3.67 4.34 -3.34 3.68 -3 3 C-3.66 2.34 -4.32 1.68 -5 1 C-2 0 -2 0 0 0 Z " fill="#F4D5C4" transform="translate(128,174)"/>
<path d="M0 0 C-1.50139512 4.20390632 -4.17275043 5.89110738 -8 8 C-8.99 7.67 -9.98 7.34 -11 7 C-9.54634731 5.82750647 -8.08692581 4.66216184 -6.625 3.5 C-5.40683594 2.52546875 -5.40683594 2.52546875 -4.1640625 1.53125 C-2 0 -2 0 0 0 Z " fill="#EDBCA1" transform="translate(361,234)"/>
<path d="M0 0 C0.33 0.99 0.66 1.98 1 3 C-0.8125 6.1875 -0.8125 6.1875 -3 9 C-3.66 9 -4.32 9 -5 9 C-3.375 2.25 -3.375 2.25 0 0 Z " fill="#EDBFA3" transform="translate(378,211)"/>
<path d="M0 0 C-0.33 0.66 -0.66 1.32 -1 2 C-3.50390625 2.6328125 -3.50390625 2.6328125 -6.5625 3.125 C-8.08037109 3.37636719 -8.08037109 3.37636719 -9.62890625 3.6328125 C-10.80259766 3.81457031 -10.80259766 3.81457031 -12 4 C-8.41084094 -0.78554541 -5.58334594 -0.37222306 0 0 Z " fill="#F8D8C3" transform="translate(256,238)"/>
<path d="M0 0 C0.66 0 1.32 0 2 0 C1.38461538 5.53846154 1.38461538 5.53846154 -0.5625 7.875 C-1.036875 8.24625 -1.51125 8.6175 -2 9 C-3 6 -3 6 -1.5625 2.8125 C-1.046875 1.884375 -0.53125 0.95625 0 0 Z " fill="#EDBEA6" transform="translate(327,160)"/>
<path d="M0 0 C0.66 0 1.32 0 2 0 C0.43358249 4.30764815 -1.68336156 8.06171464 -4 12 C-4.33 11.34 -4.66 10.68 -5 10 C-3.61457684 6.37151078 -2.15648338 3.23472506 0 0 Z " fill="#FBE7DA" transform="translate(373,72)"/>
<path d="M0 0 C0 0.66 0 1.32 0 2 C-2.90092502 3.93395001 -3.89674737 4.30131941 -7.1875 4.625 C-8.445625 4.74875 -9.70375 4.8725 -11 5 C-8.19602214 1.57291595 -4.43232801 0 0 0 Z " fill="#ECBDA3" transform="translate(294,196)"/>
<path d="M0 0 C0 0.66 0 1.32 0 2 C1.65 2 3.3 2 5 2 C2.37801226 4.15377564 0.35595828 5.40072174 -3 6 C-3 5.34 -3 4.68 -3 4 C-2.34 4 -1.68 4 -1 4 C-1 3.34 -1 2.68 -1 2 C-1.99 1.67 -2.98 1.34 -4 1 C-2 0 -2 0 0 0 Z " fill="#F7D7C4" transform="translate(239,240)"/>
<path d="M0 0 C0.66 0 1.32 0 2 0 C2.1953125 6.0546875 2.1953125 6.0546875 2 8 C1.34 8.66 0.68 9.32 0 10 C0 8.35 0 6.7 0 5 C-0.66 5 -1.32 5 -2 5 C-2 4.34 -2 3.68 -2 3 C-1.34 3 -0.68 3 0 3 C0 2.01 0 1.02 0 0 Z " fill="#EFCBB4" transform="translate(386,194)"/>
<path d="M0 0 C1 3 1 3 0.00390625 5.48046875 C-0.47175781 6.37378906 -0.94742187 7.26710937 -1.4375 8.1875 C-1.91058594 9.08855469 -2.38367188 9.98960937 -2.87109375 10.91796875 C-3.24363281 11.60503906 -3.61617188 12.29210937 -4 13 C-4.86443295 10.5653629 -5.12994709 9.36863937 -4.2578125 6.89453125 C-3.88398438 6.20746094 -3.51015625 5.52039063 -3.125 4.8125 C-2.57199219 3.77029297 -2.57199219 3.77029297 -2.0078125 2.70703125 C-1 1 -1 1 0 0 Z " fill="#FCE8DD" transform="translate(397,180)"/>
<path d="M0 0 C0.625 1.875 0.625 1.875 1 4 C-1.46278801 6.46278801 -3.70676982 6.99771255 -7 8 C-5.08864614 4.46399535 -3.37357234 2.21027154 0 0 Z " fill="#F4C8B1" transform="translate(314,178)"/>
<path d="M0 0 C2 2 2 2 2.125 5.625 C2.08375 6.73875 2.0425 7.8525 2 9 C1.34 9 0.68 9 0 9 C-1.125 7.3125 -1.125 7.3125 -2 5 C-1.125 2.25 -1.125 2.25 0 0 Z " fill="#F1C8B2" transform="translate(397,171)"/>
<path d="M0 0 C0.33 0 0.66 0 1 0 C1 1.98 1 3.96 1 6 C-0.32 6.33 -1.64 6.66 -3 7 C-2.25 2.25 -2.25 2.25 0 0 Z " fill="#ECC0A7" transform="translate(365,82)"/>
<path d="M0 0 C0 3 0 3 -1 5 C-0.34 5.33 0.32 5.66 1 6 C-2 8 -2 8 -5 8 C-3.62845496 5.04590299 -2.01136276 2.55991624 0 0 Z " fill="#F3C7AC" transform="translate(213,260)"/>
<path d="M0 0 C0.33 0.99 0.66 1.98 1 3 C-0.9375 6.1875 -0.9375 6.1875 -3 9 C-3.75 7.3125 -3.75 7.3125 -4 5 C-2.0625 2.25 -2.0625 2.25 0 0 Z " fill="#EEBB9E" transform="translate(57,234)"/>
<path d="M0 0 C0.99 0 1.98 0 3 0 C2.67 1.65 2.34 3.3 2 5 C1.01 5.33 0.02 5.66 -1 6 C-1.042721 4.33388095 -1.04063832 2.66617115 -1 1 C-0.67 0.67 -0.34 0.34 0 0 Z " fill="#EFC0A7" transform="translate(349,115)"/>
</svg>
